<?xml version="1.0" encoding="utf-8"?>
<!-- Generator: Adobe Illustrator 21.0.0, SVG Export Plug-In . SVG Version: 6.00 Build 0)  -->
<svg version="1.1" id="图层_1" xmlns="http://www.w3.org/2000/svg" xmlns:xlink="http://www.w3.org/1999/xlink" x="0px" y="0px"
	 viewBox="0 0 469.5 234.4" style="enable-background:new 0 0 469.5 234.4;" xml:space="preserve">
<style type="text/css">
	.st0{fill:#FFFFFF;}
</style>
<title>logo资源 4</title>
<g id="图层_2">
	<g id="图层_1-2">
		<path class="st0" d="M58.2,234.4l0.5-5.2c0.9-0.1,1.8-0.4,2.5-0.9c1-0.9,1.7-2.1,1.9-3.4l4.7-19.9c0.7-3,3.4-5.1,6.5-5.1l0,0
			l-5.5,23.4c-0.4,1.8-0.9,3.5-1.5,5.2C65.6,232.1,62.6,234,58.2,234.4z M62.2,196.2L62.2,196.2c0.3-3,2.8-5.2,5.8-5.2h16.4
			c0.3-2.6,2.5-4.6,5.1-4.6h0.6l-0.5,4.6h21.7c-0.3,3-2.8,5.2-5.8,5.2H89.1l-3.5,32.9c-0.3,3-2.8,5.2-5.8,5.2l0,0l4-38.1L62.2,196.2
			z M103.2,199.8L103.2,199.8l0.6,22.8c0,1.4,0.1,2.7,0.2,4.1c0.2,0.8,0.7,1.4,1.3,1.9c0.6,0.3,1.3,0.5,2,0.6l-0.6,5.2
			c-1.4-0.1-2.7-0.4-4-0.9c-1.5-0.8-2.8-2.1-3.4-3.6c-0.5-1.1-0.7-2.2-0.8-3.4L98.1,205c-0.1-2.8,2.2-5.1,5-5.2
			C103.1,199.8,103.1,199.8,103.2,199.8L103.2,199.8z"/>
		<path class="st0" d="M44.6,191l0.5-5.2H45c-2.9,0-5.4,2.2-5.7,5.2H19.4l0.5-5.2h-0.1c-3,0-5.4,2.2-5.7,5.2H9
			c-2.9,0-5.4,2.2-5.7,5.1h10.2l-0.4,4.9h0.4c2.8,0,5.1-2.1,5.3-4.9h19.9l-0.5,4.9h0.4c2.8,0,5.1-2.1,5.3-4.9h4.4
			c2.9,0,5.4-2.2,5.7-5.1H44.6z"/>
		<path class="st0" d="M36,199.6l-0.9-1.7l-4.6,2.2c2.4,4.7,5.7,8.9,9.8,12.3H11c4.3-3.1,8.4-6.5,12.2-10.2l0.7-0.6l-4.3-3.1
			l-1.2,1.3c-4.8,5-10.4,9.2-16.5,12.5l-0.8,0.4l2.6,4.6l0.7-0.4c2.1-1.2,2.2-1.4,4.1-2.7l-0.4,3.5h8.5C14,225.8,0,229.9,0,229.9
			l2.1,4.4l0.7-0.2c10.8-3.8,15.9-8.1,19.5-16.5h13.8c-0.5,3.1-1,5.2-1.5,7.6c-0.6,2.8-2.1,4.2-4.7,4.2h-4v5.1h4.3
			c5.2,0,8.4-2.6,9.6-7.9c0.7-3.3,1.5-7.1,2.3-12.7c1.6,1.7,7.3,5.1,7.3,5.1l3.3-4.2C46,211.1,40.3,205.9,36,199.6z"/>
		<line class="st0" x1="135.2" y1="193" x2="127.7" y2="231.8"/>
		
			<rect x="111.7" y="211.4" transform="matrix(0.1882 -0.9821 0.9821 0.1882 -101.9264 301.5535)" class="st0" width="39.5" height="2.1"/>
		<path class="st0" d="M185.5,216.1c1.6,0.1,3.2,0,4.8-0.3L190,219c-1.6-0.2-3.2-0.3-4.8-0.3h-12.1c-1.9,4.3-4.5,6.9-9.6,9.3
			c-3.7,1.7-7.6,2.9-11.6,3.6c-0.3-1-0.9-2-1.6-2.8c5.8-0.8,9.3-1.8,13.2-3.9c3.4-1.8,5.2-3.5,6.5-6.2h-13.2c-1.6,0-3.1,0.1-4.7,0.3
			l0.3-3.2c1.5,0.2,3.1,0.3,4.7,0.3h14c1-3.7,1.7-7.5,2.1-11.3c0.2-1.3,0.2-2.7,0.1-4h3.5c-0.3,1.3-0.6,2.7-0.7,4
			c-0.5,3.8-1.2,7.6-2.1,11.3H185.5z M165.3,213.7c-3-1.8-6.1-3.2-9.4-4.3l1.9-2.3c3.3,1,6.4,2.4,9.4,4.1L165.3,213.7z M156.5,195.2
			c1.5,0.2,3.1,0.3,4.7,0.3h25c1.3,0.1,2.7,0,4-0.2l1.4,1.6c-0.4,0.7-0.7,1.4-1,2.1c-1.2,2.6-2.6,5-4.3,7.4c-0.8-0.6-1.7-1-2.7-1.2
			c1.8-2.1,3.2-4.5,4.3-7h-27c-1.6,0-3.2,0.1-4.7,0.3L156.5,195.2z M168.8,207.3c-2.7-1.9-5.7-3.4-8.9-4.5l1.9-2.2
			c3.1,1.1,6,2.5,8.7,4.3L168.8,207.3z M173.9,221.4c5.4,2.1,10.6,4.6,15.5,7.6l-2,2.6c-4.8-3.1-9.9-5.7-15.2-7.8L173.9,221.4z"/>
		<path class="st0" d="M218.2,220.2c-1.7,3.4-4.6,5.9-9.2,7.9c-3.9,1.7-8,2.8-12.3,3.4c-0.1-1-0.5-2-1-2.9c2.5,0,5.1-0.3,7.5-1.1
			c6.1-1.8,10.2-4.3,12-7.3h-13.1c-1.6,0-3.1,0.1-4.7,0.3l0.3-3.1c1.5,0.2,3.1,0.3,4.7,0.3h14.1c0.3-0.9,0.6-1.9,0.8-2.8
			c0.9-5.8,0.9-5.8,1-6.5c0-0.4,0-0.9,0-1.3l3.2,0.1c-0.3,1.3-0.5,1.9-0.7,3.4c-0.8,4.9-0.9,5.4-1.5,7.2h11.5c1.6,0.1,3.2,0,4.8-0.3
			l-0.3,3.1c-1.6-0.2-3.2-0.3-4.8-0.3L218.2,220.2z M217.2,195.8c0.1-1,0.1-2,0-3h3.2c-0.3,1-0.5,2-0.6,3l-0.1,0.5h10
			c1.6,0,3.2-0.1,4.8-0.3l-0.3,2.9c-1.6-0.2-3.2-0.2-4.8-0.2h-10l-0.5,4.1h12c1.3,0.1,2.7,0,4-0.2l1.4,1.6c-0.3,0.4-0.6,0.9-0.8,1.4
			c-1.2,2.8-2.8,5.5-4.6,8c-0.7-0.6-1.6-1-2.5-1.2c1.8-2.2,3.3-4.6,4.4-7.2h-28.9c-1.6,0-3.2,0.1-4.8,0.2l0.3-2.9
			c1.6,0.2,3.1,0.3,4.7,0.3h12.1l0.4-4.1h-8.9c-1.6,0-3.1,0-4.7,0.2l0.3-2.9c1.6,0.2,3.1,0.3,4.7,0.3h8.9L217.2,195.8z M208.9,216.7
			c-2.7-1.8-5.6-3.3-8.6-4.4l1.6-1.9c3,1.2,6,2.6,8.8,4.3L208.9,216.7z M213.3,212.6c-2.7-1.8-5.5-3.3-8.5-4.4l1.6-1.9
			c3,1.1,5.9,2.5,8.6,4.2L213.3,212.6z M219,223.2c5.7,1.8,11.5,3.9,15.5,5.6l-1.5,2.7c-5-2.4-10.2-4.4-15.5-5.9L219,223.2z"/>
		<path class="st0" d="M249.6,204.5c-1.6,0-3.2,0.1-4.8,0.3l0.3-3.1c1.5,0.2,3.1,0.3,4.7,0.3h12l0.5-4.8c0.2-1.3,0.2-2.7,0.1-4h3.5
			c-0.3,1.3-0.6,2.6-0.7,3.9l-0.5,4.8h12.6c1.6,0,3.3-0.1,4.9-0.3l-0.3,3.1c-1.6-0.2-3.2-0.3-4.8-0.3h-12.3
			c1.6,3.7,3.7,7.1,6.3,10.1c2.8,3.4,6.2,6.3,10.1,8.5c-0.9,0.8-1.8,1.7-2.4,2.7c-1.9-1.3-3.7-2.8-5.3-4.4c-2.5-2.2-4.6-4.8-6.3-7.7
			c-1.3-2-2.4-4.2-3.2-6.4c-0.1,2-0.2,4-0.4,5.6l-1.5,14c-0.2,1.6-0.3,3.3-0.2,4.9h-3.5c0.4-1.6,0.7-3.3,0.8-4.9l1.5-14
			c0.1-1.4,0.5-3.6,0.7-5.4c-2.4,4.3-5.4,8.1-9,11.4c-2.8,2.6-5.8,5-9,7.1c-0.5-1-1.1-1.8-1.9-2.5c4.3-2.5,8.3-5.6,11.9-9.2
			c3-3,5.6-6.3,7.9-9.9L249.6,204.5z"/>
		<path class="st0" d="M297.9,227.4c-0.2,1.5-0.3,3-0.2,4.6h-3.2c0.4-1.5,0.6-3,0.7-4.6l1.2-11.3c0.2-2.4,0.7-5.9,1.1-8.1
			c-1.9,5.2-4.8,10.1-8.4,14.2c-0.3-0.9-0.8-1.8-1.5-2.5c2.7-2.8,5-6,6.8-9.4c1.2-2.1,2.2-4.3,3-6.6h-3.1c-1.2,0-2.5,0.1-3.7,0.3
			l0.3-2.9c1.2,0.2,2.5,0.3,3.7,0.3h3.4l0.5-4.5c0.2-1.3,0.2-2.7,0.2-4h3.2c-0.4,1.3-0.6,2.6-0.7,4l-0.5,4.5h2.7
			c1.1,0,2.2-0.1,3.2-0.2l-0.3,2.8c-1.1-0.1-2.1-0.2-3.2-0.2h-2.7l-0.2,1.9c2.1,2.3,4,4.9,5.6,7.5l-2.4,1.8c-1-2.3-2.2-4.5-3.6-6.6
			L297.9,227.4z M312.1,203.8c-1.5,0-3,0-4.5,0.2l0.3-2.8c1.5,0.2,2.9,0.2,4.4,0.2h7.6l0.5-4.4c0.2-1.3,0.2-2.7,0.2-4h3.2
			c-0.3,1.3-0.6,2.7-0.7,4l-0.5,4.4h2.1c1.3,0,2.7-0.1,4-0.3l-0.3,2.9c-1.3-0.2-2.6-0.3-3.9-0.3h-2.1l-2.5,24.3
			c-0.2,2.3-1.3,3.1-4.4,3.1c-1.5,0-3.1-0.1-4.6-0.3c0-1-0.1-2-0.4-2.9c1.6,0.3,3.3,0.5,5,0.6c1.5,0,1.7-0.2,1.9-1.4l1.6-16.1
			c0.1-0.6,0.1-0.6,0.5-2.5c0-0.1,0.2-1,0.5-2.6c-1.8,3.4-4.1,6.6-6.6,9.4c-3,3.3-6.3,6.2-10.1,8.6c-0.4-0.8-1-1.6-1.8-2.2
			c4.4-2.6,8.4-6,11.7-9.9c2-2.5,3.8-5.2,5.4-8L312.1,203.8z"/>
		<path class="st0" d="M356.1,201.3h8.6c1.7,0.1,3.4,0,5.1-0.2c-0.3,1.5-0.5,2.6-0.7,4.7l-0.8,7.4c-0.2,1.5-0.3,3-0.3,4.6
			c-1.6-0.2-3.3-0.3-4.9-0.2h-9.8c-0.7,2.4-2,4.6-3.6,6.5c4.8,3.1,11,4.6,19.1,4.6c0.5,0,1.4,0,2.5,0c-0.6,0.9-1.1,2-1.5,3.1
			c-9.7-0.1-16.5-1.9-22-5.6c-4,3.4-8.2,5.2-14.6,6.4c-0.2-0.9-0.5-1.8-1-2.6c2.5-0.3,4.9-0.9,7.2-1.8c2.3-0.8,4.5-2,6.4-3.5
			c-1.2-1.1-2.4-2.3-3.4-3.5l-0.9-0.9l2.6-1.5c0.9,1.6,2.1,3,3.5,4.1c1.3-1.5,2.2-3.2,2.8-5.1h-7.9c-1.7,0-3.3,0-5,0.2
			c0.2-1.5,0.5-2.8,0.7-4.6l0.8-7.3c0.2-2.1,0.3-3.4,0.3-4.7c1.7,0.2,3.3,0.3,5,0.2h8.9l0.4-4.2h-13.4c-1.5,0-3,0.1-4.5,0.3l0.3-3
			c1.5,0.2,3,0.3,4.5,0.3h29c1.5,0,3-0.1,4.5-0.3l-0.3,3c-1.5-0.2-3-0.3-4.5-0.3h-12.9L356.1,201.3z M351.3,215.2
			c0.3-1.5,0.4-2.1,0.9-4.9h-10.8l-0.5,4.9H351.3z M352.5,208.1c0.1-1,0.2-1.9,0.3-2.5l0.2-2h-11l-0.5,4.5L352.5,208.1z
			 M365.5,215.2l0.5-4.9h-11.1c-0.3,1.9-0.5,2.9-0.9,4.9H365.5z M366.3,208.1l0.5-4.5h-11l-0.6,4.5H366.3z"/>
		<path class="st0" d="M388.2,211l0.3-3.3c0.1-1.1,0.2-2.3,0.1-3.4h3.1c-0.3,1.1-0.5,2.3-0.6,3.4l-0.3,3.3h0.8c1.5,0,3-0.1,4.5-0.3
			l-0.3,2.9c-1.5-0.2-3-0.3-4.5-0.3h-0.8l-0.7,6.3c2.6-0.6,3.4-0.8,5.8-1.4l-0.3,2.4c-3,0.8-3.9,1-5.8,1.4l-0.5,5.2
			c-0.2,1.5-0.2,3-0.2,4.5h-3.2c0.4-1.5,0.6-3,0.8-4.6l0.5-4.6c-1.9,0.4-1.9,0.4-6.5,1.2c-0.6,0.1-1.1,0.2-2,0.4l-0.1-3
			c2.8-0.2,5.7-0.6,8.5-1.1c0.2,0,0.2,0,0.4-0.1l0.7-6.8h-4.1c-0.9,0-1.9,0-2.8,0.2l-1-2.1c0.6-0.6,1-1.3,1.4-2l3.7-9.2h-1
			c-1.2,0-2.4,0-3.6,0.2l0.3-2.9c1.2,0.2,2.4,0.3,3.7,0.2h1.6l0.2-0.4c0.6-1.6,1.1-3.3,1.4-5l3.1,0.6c-0.5,1.1-0.7,1.6-1,2.1
			c-0.1,0.3-0.2,0.6-0.4,0.9l-0.6,1.6l-0.1,0.2h5.4c1.2,0,2.4,0,3.6-0.2l-0.3,2.9c-1.2-0.2-2.4-0.2-3.6-0.2h-6l-4.3,10.8H388.2z
			 M401.6,216.6c-1.4,0-2.7,0-4.1,0.2l0.3-2.9c1.3,0.2,2.7,0.3,4.1,0.2h10.6c1.3,0,2.7,0,4-0.2l-0.3,2.9c-1.3-0.2-2.6-0.3-3.9-0.2
			h-4l-1.1,10.8h5.5c1.5,0,2.9-0.1,4.4-0.3l-0.3,3c-1.4-0.2-2.8-0.3-4.3-0.3h-14c-1.5,0-3,0.1-4.4,0.3l0.3-3
			c1.4,0.2,2.9,0.3,4.4,0.3h5.7l1.1-10.8H401.6z M417,212.4c-2.7-2.2-5.7-4.1-8.8-5.8c-3,2.4-6.5,4.3-10.2,5.4
			c-0.3-0.9-0.8-1.7-1.3-2.4c3.2-0.9,6.3-2.3,9-4.2c3.1-2.1,5.7-4.9,7.6-8.1h-10c-1.2,0-2.9,0.1-3.8,0.2l0.3-3
			c1.3,0.2,2.6,0.3,3.9,0.3h9.4c1,0,2,0,3-0.2l1.4,1.8c-0.8,0.9-1.6,1.9-2.3,2.9c-1.4,2-3,3.8-4.8,5.6c2.9,1.5,5.7,3.2,8.4,5.1
			L417,212.4z"/>
		<path class="st0" d="M432.8,227.1c-0.2,1.7-0.3,3.3-0.3,5h-3.1c0.4-1.6,0.6-3.3,0.8-5l1.3-12c0.2-1.9,0.5-4.4,0.9-6.9
			c-1,2.9-2.3,5.7-3.8,8.4c-1.1,1.8-2.3,3.6-3.6,5.2c-0.3-0.9-0.8-1.8-1.4-2.6c2.3-2.6,4.3-5.4,5.9-8.5c1.1-2.1,2-4.3,2.8-6.5h-2.8
			c-1,0-2.1,0-3.1,0.2l0.3-2.7c1,0.1,2.1,0.2,3.1,0.2h3.1l0.4-4.1c0.2-1.5,0.3-3,0.2-4.5h3c-0.3,1.5-0.6,2.9-0.7,4.4l-0.4,4.1h2.5
			c1,0,1.9,0,2.9-0.2l-0.3,2.7c-0.9-0.1-1.9-0.1-2.8-0.1h-2.5l-0.2,2.1c1.8,2.3,3.5,4.8,4.9,7.4l-2.2,1.8c-0.8-2-1.8-4-3-5.8
			L432.8,227.1z M452.5,207c-2.8,6.7-6.1,13.3-9.7,19.6c4.6-0.4,9.2-1.1,13.8-2.1c-1.1-2.8-2.4-5.5-3.8-8.1l2.5-1.2
			c2.5,4.5,4.5,9.3,6.1,14.1l-2.8,1.4c-0.6-2.1-0.9-2.9-1.2-3.9c-0.6,0.1-1.2,0.2-1.7,0.4c-2.2,0.5-5,0.9-9.5,1.5
			c-3.3,0.5-5.3,0.7-5.9,0.8c-0.7,0-1.2,0.1-2.1,0.3l-0.1-2.8c0.9,0,1.7-0.4,2.2-1.1c1.3-2.3,2.7-5,3.9-7.4c2-4,3.8-8.2,5.3-12.4
			L452.5,207z M450.2,195.3c-2.1,5.9-5.2,11.4-9,16.3c-0.6-0.7-1.3-1.4-2.2-1.9c4-4.4,6.9-9.7,8.5-15.5L450.2,195.3z M457.4,193.5
			c0.5,3.2,1.5,6.3,2.9,9.2c1,2.4,2.3,4.7,4,6.7c-0.9,0.6-1.7,1.3-2.5,2.1c-3.2-4.6-5.1-9.1-7.2-17L457.4,193.5z"/>
		<path class="st0" d="M331.9,167.6l2.8-13.1h25.7c3.8,0,7-2.6,7.8-6.3l8.9-41.6h-18.5l2.9-13.1h35.3l-12.2,57.2
			c-2.1,9.8-10.8,16.9-20.9,16.9H331.9z"/>
		<path class="st0" d="M198.8,167.6l11.6-54.1c2.2-10.3,10.7-18.1,21.1-19.6c-5,23.2-11.8,55.1-12.2,56.6L218,154l3.8-0.1h11.8
			l8.6-40.5c2.2-10.3,10.7-18.1,21.1-19.6c-5,23.2-11.8,55.1-12.2,56.6l-1.2,3.6l3.8-0.1h4.8c4,0,7.5-2.8,8.4-6.8l7.2-33.7
			c2.2-10.3,10.6-18.1,21.1-19.6l-12.6,57c-2.1,9.8-10.8,16.8-20.9,16.8L198.8,167.6z"/>
		<path class="st0" d="M291,167.6v-0.1l0,0l12.2-57c2.1-9.8,10.8-16.9,20.9-16.9h42l-12.2,57.2c-2.1,9.8-10.8,16.9-20.9,16.9
			L291,167.6z M327.8,106.6c-4,0-7.5,2.8-8.4,6.8l-8.8,41.1h18.6c4,0,7.4-2.8,8.2-6.6l8.8-41.2L327.8,106.6z"/>
		<path class="st0" d="M100.6,113.4c2.2-10.3,10.7-18.1,21.1-19.6l-11.5,53.8c-2.2,10.3-10.7,18.2-21.1,19.7L100.6,113.4z"/>
		<path class="st0" d="M76.3,125.7l-44.4,0.1l1.8-8.6c0.8-3.9,4.2-6.6,8.2-6.7H76c10.1,0,19-6.8,21.6-16.6l0,0L32.9,94
			c-6.6,0-12.2,4.6-13.6,11L6,167.4c10.5-1.5,18.9-9.3,21.1-19.7l0,0c0.7-3.5,3.8-5.9,7.4-5.9l22.9,0.2
			C66.9,142.1,75,135.1,76.3,125.7L76.3,125.7z"/>
		<path class="st0" d="M182.2,113.4l-6.6,31l0,0l-21.6-43.9c-2-4.1-6.2-6.7-10.8-6.7h-0.3c-5.7,0-10.7,4-11.8,9.6l-13,63.8
			c10.5-1.5,18.9-9.3,21.1-19.7l6.1-28.8l0.7-0.1l21.4,42.3c2,3.9,5.9,6.3,10.3,6.3l0,0c5.4,0,10.1-3.7,11.2-9l14.3-64.5
			C192.9,95.3,184.4,103.2,182.2,113.4z"/>
		<path class="st0" d="M148.6,23C142,6.3,130,0,116.9,0C99.4,0,85.2,14.2,85.2,31.7c0,0.1,0,0.3,0,0.4c-12.1,2.4-20,14.1-17.6,26.2
			c1.7,8.6,8.3,15.5,16.8,17.5c0.2,0,0.3-0.1,0.4-0.2c0-0.1,0-0.2-0.1-0.3c-8.4-5.7-10.6-17.2-4.9-25.6c3.4-5.1,9.1-8.1,15.3-8.1
			c0.6,0,1.1,0,1.7,0.1c-1.5-4.2-1.7-8.8-0.5-13.1c3.2-12,15.6-19.1,27.6-15.8c8.8,2.4,15.3,9.9,16.4,19c4.6,0.9,8.9,1.3,12.8,7.2
			c3.3,5,2,14-2.2,18.4c-3.8,3.9-13.7,6.9-29.1,13c-23.4,9.2-19.5,26.8-19.5,26.8c6-6.2,17.7-14.6,27.5-18.2
			c17.6-6.5,37.6-10.4,39-31.5C169.4,36.1,161.6,25.9,148.6,23z"/>
		<path class="st0" d="M437.5,93.5L408,93.7l-15.8,74l0,0v0.1H412l14.8-0.1c20.2-0.1,37.6-14.3,41.7-34.1l0.4-1.7
			c3.6-17.2-7.5-34.1-24.7-37.7C442,93.7,439.7,93.5,437.5,93.5z M452.5,129.4c-3.1,14.7-16.1,25.2-31.1,25.2H412l0.7-3.2l0.5-2.3
			l0,0l9-42.4h14.2c9.4,0,17,7.6,17,17c0,1.2-0.1,2.4-0.4,3.5L452.5,129.4z"/>
	</g>
</g>
</svg>
