<?xml version="1.0" standalone="no"?><!DOCTYPE svg PUBLIC "-//W3C//DTD SVG 1.1//EN" "http://www.w3.org/Graphics/SVG/1.1/DTD/svg11.dtd"><svg t="1513671125969" class="icon" style="" viewBox="0 0 1024 1024" version="1.1" xmlns="http://www.w3.org/2000/svg" p-id="3209" xmlns:xlink="http://www.w3.org/1999/xlink" width="48" height="48"><defs><style type="text/css"></style></defs><path d="M8.533333 512C8.533333 789.333333 234.666667 1015.466667 512 1015.466667S1015.466667 789.333333 1015.466667 512 789.333333 8.533333 512 8.533333 8.533333 234.666667 8.533333 512z" fill="#BBBBBB" p-id="3210"></path><path d="M721.066667 347.733333c-6.4 8.533333-12.8 17.066667-17.066667 25.6-6.4 10.666667-12.8 29.866667-23.466667 53.333334l-162.133333 381.866666h-34.133333l-170.666667-401.066666c-6.4-17.066667-14.933333-36.266667-25.6-51.2-6.4-8.533333-14.933333-17.066667-25.6-19.2-14.933333-4.266667-29.866667-6.4-46.933333-6.4v-49.066667h273.066666v49.066667c-19.2 0-38.4 2.133333-55.466666 6.4-10.666667 2.133333-17.066667 10.666667-17.066667 21.333333 0 12.8 2.133333 23.466667 6.4 36.266667L535.466667 661.333333l106.666666-249.6c6.4-14.933333 10.666667-29.866667 12.8-44.8 0-17.066667-4.266667-25.6-14.933333-29.866666-14.933333-4.266667-32-6.4-49.066667-6.4v-49.066667h168.533334v49.066667c-8.533333 2.133333-17.066667 2.133333-23.466667 4.266666-8.533333 0-8.533333 6.4-14.933333 12.8z" fill="#FFFFFF" p-id="3211"></path></svg>